{
	"asset":{
		"generator":"Khronos glTF Blender I/O v3.6.27",
		"version":"2.0"
	},
	"extensionsUsed":[
		"KHR_materials_specular"
	],
	"scene":0,
	"scenes":[
		{
			"name":"Scene",
			"nodes":[
				0
			]
		}
	],
	"nodes":[
		{
			"mesh":0,
			"name":"Object_4"
		}
	],
	"materials":[
		{
			"doubleSided":true,
			"extensions":{
				"KHR_materials_specular":{
					"specularColorTexture":{
						"index":0
					},
					"specularColorFactor":[
						1.9999999999999998,
						1.9999999999999998,
						1.9999999999999998
					]
				}
			},
			"name":"Material.017",
			"pbrMetallicRoughness":{
				"baseColorTexture":{
					"index":1
				},
				"metallicFactor":0,
				"roughnessFactor":0.5
			}
		}
	],
	"meshes":[
		{
			"name":"Object_0.001",
			"primitives":[
				{
					"attributes":{
						"COLOR_0":0,
						"POSITION":1,
						"NORMAL":2,
						"TEXCOORD_0":3
					},
					"indices":4,
					"material":0
				}
			]
		}
	],
	"textures":[
		{
			"sampler":0,
			"source":0
		},
		{
			"sampler":0,
			"source":1
		}
	],
	"images":[
		{
			"mimeType":"image/png",
			"name":"Image",
			"uri":"Image.png"
		},
		{
			"mimeType":"image/png",
			"name":"diffuse",
			"uri":"diffuse.png"
		}
	],
	"accessors":[
		{
			"bufferView":0,
			"componentType":5123,
			"count":35197,
			"normalized":true,
			"type":"VEC4"
		},
		{
			"bufferView":1,
			"componentType":5126,
			"count":35197,
			"max":[
				0.9355534911155701,
				0.7344942092895508,
				0.9678306579589844
			],
			"min":[
				-0.9476706385612488,
				-1.0115628242492676,
				-0.9456155300140381
			],
			"type":"VEC3"
		},
		{
			"bufferView":2,
			"componentType":5126,
			"count":35197,
			"type":"VEC3"
		},
		{
			"bufferView":3,
			"componentType":5126,
			"count":35197,
			"type":"VEC2"
		},
		{
			"bufferView":4,
			"componentType":5123,
			"count":37623,
			"type":"SCALAR"
		}
	],
	"bufferViews":[
		{
			"buffer":0,
			"byteLength":281576,
			"byteOffset":0,
			"target":34962
		},
		{
			"buffer":0,
			"byteLength":422364,
			"byteOffset":281576,
			"target":34962
		},
		{
			"buffer":0,
			"byteLength":422364,
			"byteOffset":703940,
			"target":34962
		},
		{
			"buffer":0,
			"byteLength":281576,
			"byteOffset":1126304,
			"target":34962
		},
		{
			"buffer":0,
			"byteLength":75246,
			"byteOffset":1407880,
			"target":34963
		}
	],
	"samplers":[
		{
			"magFilter":9729,
			"minFilter":9987
		}
	],
	"buffers":[
		{
			"byteLength":1483128,
			"uri":"scene.bin"
		}
	]
}
