{
	"asset":{
		"generator":"Khronos glTF Blender I/O v3.6.27",
		"version":"2.0"
	},
	"extensionsUsed":[
		"KHR_materials_specular"
	],
	"scene":0,
	"scenes":[
		{
			"name":"Scene",
			"nodes":[
				0
			]
		}
	],
	"nodes":[
		{
			"mesh":0,
			"name":"mesh1"
		}
	],
	"materials":[
		{
			"doubleSided":true,
			"extensions":{
				"KHR_materials_specular":{
					"specularColorTexture":{
						"index":0
					}
				}
			},
			"name":"Mat1",
			"pbrMetallicRoughness":{
				"baseColorTexture":{
					"index":1
				},
				"metallicFactor":0,
				"roughnessFactor":0.5
			}
		}
	],
	"meshes":[
		{
			"name":"Object002_Material #86_0",
			"primitives":[
				{
					"attributes":{
						"POSITION":0,
						"NORMAL":1,
						"TEXCOORD_0":2
					},
					"indices":3,
					"material":0
				}
			]
		}
	],
	"textures":[
		{
			"sampler":0,
			"source":0
		},
		{
			"sampler":0,
			"source":1
		}
	],
	"images":[
		{
			"mimeType":"image/png",
			"name":"Image",
			"uri":"Image.png"
		},
		{
			"mimeType":"image/png",
			"name":"diffuse",
			"uri":"diffuse.png"
		}
	],
	"accessors":[
		{
			"bufferView":0,
			"componentType":5126,
			"count":6760,
			"max":[
				208.3461456298828,
				213.3697509765625,
				60.30982971191406
			],
			"min":[
				-208.31846618652344,
				-135.5721435546875,
				-38.45983123779297
			],
			"type":"VEC3"
		},
		{
			"bufferView":1,
			"componentType":5126,
			"count":6760,
			"type":"VEC3"
		},
		{
			"bufferView":2,
			"componentType":5126,
			"count":6760,
			"type":"VEC2"
		},
		{
			"bufferView":3,
			"componentType":5123,
			"count":18822,
			"type":"SCALAR"
		}
	],
	"bufferViews":[
		{
			"buffer":0,
			"byteLength":81120,
			"byteOffset":0,
			"target":34962
		},
		{
			"buffer":0,
			"byteLength":81120,
			"byteOffset":81120,
			"target":34962
		},
		{
			"buffer":0,
			"byteLength":54080,
			"byteOffset":162240,
			"target":34962
		},
		{
			"buffer":0,
			"byteLength":37644,
			"byteOffset":216320,
			"target":34963
		}
	],
	"samplers":[
		{
			"magFilter":9729,
			"minFilter":9987
		}
	],
	"buffers":[
		{
			"byteLength":253964,
			"uri":"scene.bin"
		}
	]
}
